<svg width="80" height="80" viewBox="0 0 80 80" fill="none" xmlns="http://www.w3.org/2000/svg">
<g clip-path="url(#clip0_201_2)">
<path d="M73.0023 77.4999C74.2043 77.4999 75.3333 77.0319 76.1833 76.1829C77.9363 74.4299 77.9363 71.5759 76.1833 69.8229L39.3553 34.7129L34.6993 39.3739L69.8303 76.1909C70.6713 77.0319 71.8013 77.4999 73.0023 77.4999Z" fill="#E5E9F0"/>
<path d="M39.3644 35.4109L35.3984 39.3809L70.1754 75.8289C70.9314 76.5839 71.9344 76.9999 73.0024 76.9999C74.0704 76.9999 75.0744 76.5839 75.8294 75.8289C77.3884 74.2699 77.3884 71.7339 75.8464 70.1919L39.3644 35.4109ZM39.3464 34.0129L76.5364 69.4689C78.4884 71.4209 78.4874 74.5849 76.5364 76.5369C75.5604 77.5119 74.2814 77.9999 73.0024 77.9999C71.7234 77.9999 70.4444 77.5119 69.4684 76.5359L34.0004 39.3659L39.3464 34.0129Z" fill="#C8C5CF"/>
<path d="M28 53.5C42.061 53.5 53.5 42.061 53.5 28C53.5 13.939 42.061 2.5 28 2.5C13.939 2.5 2.5 13.939 2.5 28C2.5 42.061 13.939 53.5 28 53.5Z" fill="#F1F2F7"/>
<path d="M28 3C14.215 3 3 14.215 3 28C3 41.785 14.215 53 28 53C41.785 53 53 41.785 53 28C53 14.215 41.785 3 28 3ZM28 2C42.359 2 54 13.641 54 28C54 42.359 42.359 54 28 54C13.641 54 2 42.359 2 28C2 13.641 13.641 2 28 2Z" fill="#C8C5CF"/>
</g>
<defs>
<clipPath id="clip0_201_2">
<rect width="80" height="80" fill="white"/>
</clipPath>
</defs>
</svg>
